<svg width="177" height="209" viewBox="0 0 177 209" fill="none" xmlns="http://www.w3.org/2000/svg">
<rect width="177" height="209" rx="6" fill="#8E97FE"/>
<path d="M17.819 95.224V99.461H22.018C23.538 99.461 24.298 98.7454 24.298 97.314C24.298 95.9207 23.538 95.224 22.018 95.224H17.819ZM15.444 101.399V87.833H22.037C23.291 87.833 24.2727 88.118 24.982 88.688C25.704 89.258 26.065 90.094 26.065 91.196C26.065 92.564 25.419 93.5267 24.127 94.084V94.122C25.8243 94.4894 26.673 95.6547 26.673 97.618C26.673 98.7454 26.2803 99.6384 25.495 100.297C24.621 101.032 23.348 101.399 21.676 101.399H15.444ZM17.819 89.771V93.514H21.695C22.2777 93.514 22.7527 93.3494 23.12 93.02C23.5 92.6907 23.69 92.2284 23.69 91.633C23.69 90.3917 23.025 89.771 21.695 89.771H17.819ZM34.5789 98.093V96.478C34.3003 96.6554 33.8949 96.7884 33.3629 96.877C32.8816 96.9404 32.4003 97.0037 31.9189 97.067C30.7409 97.2697 30.1519 97.8144 30.1519 98.701C30.1519 99.1317 30.3926 99.461 30.8739 99.689C31.2413 99.8664 31.6656 99.955 32.1469 99.955C32.7296 99.955 33.2553 99.8157 33.7239 99.537C34.2939 99.195 34.5789 98.7137 34.5789 98.093ZM36.7449 94.16V99.214C36.7449 99.708 36.9159 99.955 37.2579 99.955C37.4606 99.955 37.6379 99.9424 37.7899 99.917V101.418C37.3213 101.583 36.8653 101.665 36.4219 101.665C35.4593 101.665 34.9019 101.266 34.7499 100.468C33.9393 101.266 32.8056 101.665 31.3489 101.665C30.3989 101.665 29.6199 101.424 29.0119 100.943C28.3279 100.424 27.9859 99.708 27.9859 98.796C27.9859 97.7067 28.3913 96.9214 29.2019 96.44C29.6959 96.1487 30.5509 95.9144 31.7669 95.737C33.1349 95.5344 33.8189 95.433 33.8189 95.433C34.4143 95.2557 34.7119 94.8947 34.7119 94.35C34.7119 93.4634 34.0343 93.02 32.6789 93.02C31.3236 93.02 30.6016 93.5394 30.5129 94.578H28.3469C28.4736 92.3994 29.9619 91.31 32.8119 91.31C33.8886 91.31 34.7816 91.5254 35.4909 91.956C36.3269 92.4627 36.7449 93.1974 36.7449 94.16ZM38.5435 98.245H40.7095C40.8109 99.385 41.5519 99.955 42.9325 99.955C44.4272 99.955 45.1555 99.5244 45.1175 98.663C45.0922 98.055 44.5222 97.618 43.4075 97.352C41.5455 96.896 40.5385 96.63 40.3865 96.554C39.2972 96.0727 38.7525 95.262 38.7525 94.122C38.7525 93.1467 39.2149 92.412 40.1395 91.918C40.8742 91.5127 41.7799 91.31 42.8565 91.31C43.9585 91.31 44.8642 91.538 45.5735 91.994C46.3715 92.526 46.8339 93.305 46.9605 94.331H44.6995C44.5349 93.457 43.8699 93.02 42.7045 93.02C41.5139 93.02 40.9185 93.3557 40.9185 94.027C40.9185 94.483 41.2542 94.8314 41.9255 95.072C42.0522 95.1227 42.7805 95.3 44.1105 95.604C45.0985 95.832 45.8269 96.1107 46.2955 96.44C46.9542 96.9214 47.2835 97.599 47.2835 98.473C47.2835 99.5497 46.8085 100.373 45.8585 100.943C45.0605 101.424 44.0725 101.665 42.8945 101.665C41.6025 101.665 40.5765 101.386 39.8165 100.829C38.9805 100.221 38.5562 99.3597 38.5435 98.245ZM48.9851 101.399V91.576H51.1511V101.399H48.9851ZM48.9851 89.885V87.833H51.1511V89.885H48.9851ZM62.3081 94.863H60.1421C59.9648 93.6344 59.2174 93.02 57.9001 93.02C57.1781 93.02 56.5891 93.2417 56.1331 93.685C55.5124 94.293 55.2021 95.262 55.2021 96.592C55.2021 97.5167 55.3984 98.283 55.7911 98.891C56.2598 99.6004 56.9311 99.955 57.8051 99.955C58.4384 99.955 58.9578 99.7587 59.3631 99.366C59.7811 98.9607 60.0408 98.4097 60.1421 97.713H62.3081C61.8901 100.348 60.3891 101.665 57.8051 101.665C56.3104 101.665 55.1324 101.177 54.2711 100.202C53.4478 99.29 53.0361 98.0867 53.0361 96.592C53.0361 95.034 53.4414 93.78 54.2521 92.83C55.1134 91.8167 56.3231 91.31 57.8811 91.31C59.0844 91.31 60.0788 91.6014 60.8641 92.184C61.7254 92.8174 62.2068 93.7104 62.3081 94.863ZM68.5717 99.955C69.4837 99.955 70.193 99.5877 70.6997 98.853C71.143 98.2197 71.3647 97.428 71.3647 96.478C71.3647 95.5407 71.143 94.7554 70.6997 94.122C70.193 93.3874 69.4837 93.02 68.5717 93.02C67.6597 93.02 66.9504 93.3874 66.4437 94.122C66.0004 94.7554 65.7787 95.5407 65.7787 96.478C65.7787 97.428 66.0004 98.2197 66.4437 98.853C66.9504 99.5877 67.6597 99.955 68.5717 99.955ZM68.5717 101.665C67.0264 101.665 65.804 101.177 64.9047 100.202C64.0434 99.2647 63.6127 98.0234 63.6127 96.478C63.6127 94.9454 64.0497 93.704 64.9237 92.754C65.8104 91.7914 67.0264 91.31 68.5717 91.31C70.117 91.31 71.3394 91.7977 72.2387 92.773C73.1 93.7104 73.5307 94.9454 73.5307 96.478C73.5307 98.0234 73.1 99.2647 72.2387 100.202C71.3394 101.177 70.117 101.665 68.5717 101.665ZM74.7994 98.245H76.9654C77.0667 99.385 77.8077 99.955 79.1884 99.955C80.6831 99.955 81.4114 99.5244 81.3734 98.663C81.3481 98.055 80.7781 97.618 79.6634 97.352C77.8014 96.896 76.7944 96.63 76.6424 96.554C75.5531 96.0727 75.0084 95.262 75.0084 94.122C75.0084 93.1467 75.4707 92.412 76.3954 91.918C77.1301 91.5127 78.0357 91.31 79.1124 91.31C80.2144 91.31 81.1201 91.538 81.8294 91.994C82.6274 92.526 83.0897 93.305 83.2164 94.331H80.9554C80.7907 93.457 80.1257 93.02 78.9604 93.02C77.7697 93.02 77.1744 93.3557 77.1744 94.027C77.1744 94.483 77.5101 94.8314 78.1814 95.072C78.3081 95.1227 79.0364 95.3 80.3664 95.604C81.3544 95.832 82.0827 96.1107 82.5514 96.44C83.2101 96.9214 83.5394 97.599 83.5394 98.473C83.5394 99.5497 83.0644 100.373 82.1144 100.943C81.3164 101.424 80.3284 101.665 79.1504 101.665C77.8584 101.665 76.8324 101.386 76.0724 100.829C75.2364 100.221 74.8121 99.3597 74.7994 98.245Z" fill="white"/>
<path d="M13.923 122.534L17.091 114.68H17.927L21.007 122.534H20.204L19.247 120.092H15.672L14.726 122.534H13.923ZM17.476 115.428L15.903 119.454H18.994L17.476 115.428ZM21.7207 122.534V114.68H25.2077C25.919 114.68 26.4837 114.878 26.9017 115.274C27.327 115.67 27.5397 116.22 27.5397 116.924C27.5397 117.628 27.327 118.178 26.9017 118.574C26.4837 118.97 25.919 119.168 25.2077 119.168H22.4687V122.534H21.7207ZM22.4687 115.318V118.53H25.0427C25.578 118.53 26.0034 118.394 26.3187 118.123C26.634 117.844 26.7917 117.444 26.7917 116.924C26.7917 116.403 26.6304 116 26.3077 115.714C25.9997 115.45 25.578 115.318 25.0427 115.318H22.4687ZM28.6494 122.534V114.68H32.2464C32.9431 114.68 33.5041 114.845 33.9294 115.175C34.3988 115.534 34.6334 116.051 34.6334 116.726C34.6334 117.239 34.5051 117.672 34.2484 118.024C33.9771 118.398 33.5958 118.632 33.1044 118.728V118.75C33.9551 118.86 34.4134 119.45 34.4794 120.521C34.5161 121.151 34.5381 121.503 34.5454 121.577C34.6041 122.046 34.7031 122.365 34.8424 122.534H34.0174C33.9148 122.372 33.8451 121.965 33.8084 121.313C33.7644 120.572 33.6728 120.059 33.5334 119.773C33.2988 119.289 32.8661 119.047 32.2354 119.047H29.3974V122.534H28.6494ZM29.3974 115.318V118.409H32.1914C32.6681 118.409 33.0678 118.269 33.3904 117.991C33.7204 117.712 33.8854 117.342 33.8854 116.88C33.8854 116.388 33.7388 116.007 33.4454 115.736C33.1594 115.457 32.7414 115.318 32.1914 115.318H29.3974ZM35.9863 122.534V114.68H41.4093V115.318H36.7343V118.156H41.1123V118.794H36.7343V121.896H41.4643V122.534H35.9863ZM42.1108 119.949H42.8588C42.8295 121.357 43.6838 122.061 45.4218 122.061C45.9205 122.061 46.3715 121.936 46.7748 121.687C47.2588 121.393 47.5008 120.986 47.5008 120.466C47.5008 119.784 46.9618 119.311 45.8838 119.047L44.1348 118.618C42.9542 118.332 42.3638 117.701 42.3638 116.726C42.3638 116.198 42.5398 115.732 42.8918 115.329C43.3685 114.786 44.0945 114.515 45.0698 114.515C45.8912 114.515 46.5695 114.72 47.1048 115.131C47.6915 115.578 47.9812 116.187 47.9738 116.957H47.2258C47.2038 116.385 46.9802 115.934 46.5548 115.604C46.1588 115.303 45.6675 115.153 45.0808 115.153C44.5088 115.153 44.0542 115.266 43.7168 115.494C43.3135 115.765 43.1118 116.172 43.1118 116.715C43.1118 117.316 43.5078 117.716 44.2998 117.914L46.2138 118.387C47.5705 118.724 48.2488 119.413 48.2488 120.455C48.2488 120.961 48.0948 121.401 47.7868 121.775C47.2882 122.391 46.4412 122.699 45.2458 122.699C44.2632 122.699 43.4968 122.479 42.9468 122.039C42.3455 121.562 42.0668 120.865 42.1108 119.949ZM49.4356 122.534V114.68H54.8586V115.318H50.1836V118.156H54.5616V118.794H50.1836V121.896H54.9136V122.534H49.4356ZM55.9451 122.534V114.68H56.7811L61.3571 121.324H61.3791V114.68H62.1271V122.534H61.2911L56.7151 115.89H56.6931V122.534H55.9451ZM62.8542 115.318V114.68H69.0802V115.318H66.3412V122.534H65.5932V115.318H62.8542ZM68.9445 122.534L72.1125 114.68H72.9485L76.0285 122.534H75.2255L74.2685 120.092H70.6935L69.7475 122.534H68.9445ZM72.4975 115.428L70.9245 119.454H74.0155L72.4975 115.428ZM82.5942 119.542H83.3422C83.2395 120.51 82.8949 121.28 82.3082 121.852C81.7289 122.416 80.9845 122.699 80.0752 122.699H80.0642L79.7012 123.172C79.8112 123.15 79.9249 123.139 80.0422 123.139C80.6655 123.139 80.9772 123.377 80.9772 123.854C80.9772 124.162 80.8452 124.404 80.5812 124.58C80.3539 124.726 80.0825 124.8 79.7672 124.8C79.4005 124.8 79.0559 124.723 78.7332 124.569L78.8872 124.217C79.1365 124.319 79.4262 124.371 79.7562 124.371C80.1449 124.371 80.3392 124.213 80.3392 123.898C80.3392 123.619 80.1815 123.48 79.8662 123.48C79.6095 123.48 79.4225 123.509 79.3052 123.568L79.1292 123.403L79.6902 122.677C78.6269 122.589 77.7945 122.141 77.1932 121.335C76.6432 120.594 76.3682 119.685 76.3682 118.607C76.3682 117.463 76.6762 116.513 77.2922 115.758C77.9669 114.929 78.8945 114.515 80.0752 114.515C80.8599 114.515 81.5455 114.731 82.1322 115.164C82.7702 115.64 83.1369 116.271 83.2322 117.056H82.4842C82.3522 116.462 82.0625 115.996 81.6152 115.659C81.1752 115.321 80.6619 115.153 80.0752 115.153C79.0999 115.153 78.3482 115.512 77.8202 116.231C77.3509 116.869 77.1162 117.661 77.1162 118.607C77.1162 119.553 77.3509 120.341 77.8202 120.972C78.3482 121.698 79.0999 122.061 80.0752 122.061C80.7792 122.061 81.3622 121.815 81.8242 121.324C82.2642 120.862 82.5209 120.268 82.5942 119.542ZM83.6183 122.534L86.7863 114.68H87.6223L90.7023 122.534H89.8993L88.9423 120.092H85.3673L84.4213 122.534H83.6183ZM87.1713 115.428L85.5983 119.454H88.6893L87.1713 115.428ZM88.4693 112.733H88.8873C88.8433 113.019 88.7443 113.257 88.5903 113.448C88.4143 113.668 88.1943 113.778 87.9303 113.778C87.7103 113.778 87.4316 113.693 87.0943 113.525C86.757 113.356 86.5406 113.272 86.4453 113.272C86.0566 113.272 85.8623 113.459 85.8623 113.833H85.4333C85.47 113.547 85.5726 113.301 85.7413 113.096C85.9173 112.883 86.141 112.777 86.4123 112.777C86.6323 112.777 86.9036 112.857 87.2263 113.019C87.5563 113.18 87.78 113.261 87.8973 113.261C88.1686 113.261 88.3593 113.085 88.4693 112.733ZM90.998 118.607C90.998 117.463 91.306 116.513 91.922 115.758C92.5967 114.929 93.5244 114.515 94.705 114.515C95.8784 114.515 96.8024 114.929 97.477 115.758C98.093 116.513 98.401 117.463 98.401 118.607C98.401 119.751 98.093 120.7 97.477 121.456C96.8024 122.284 95.8784 122.699 94.705 122.699C93.5244 122.699 92.5967 122.284 91.922 121.456C91.306 120.7 90.998 119.751 90.998 118.607ZM91.746 118.607C91.746 119.553 91.9807 120.341 92.45 120.972C92.978 121.698 93.7297 122.061 94.705 122.061C95.673 122.061 96.4247 121.698 96.96 120.972C97.422 120.341 97.653 119.553 97.653 118.607C97.653 117.661 97.422 116.869 96.96 116.231C96.4247 115.512 95.673 115.153 94.705 115.153C93.7297 115.153 92.978 115.512 92.45 116.231C91.9807 116.869 91.746 117.661 91.746 118.607Z" fill="white"/>
<path d="M14.432 180.417H15.188C15.204 180.993 15.404 181.461 15.788 181.821C16.18 182.181 16.668 182.361 17.252 182.361C17.884 182.361 18.392 182.137 18.776 181.689C19.16 181.241 19.352 180.701 19.352 180.069C19.352 179.445 19.148 178.925 18.74 178.509C18.34 178.093 17.828 177.885 17.204 177.885C16.38 177.885 15.756 178.217 15.332 178.881H14.684L15.5 174.525H19.7V175.221H16.028L15.488 178.005L15.512 178.029C15.952 177.509 16.544 177.249 17.288 177.249C18.144 177.249 18.828 177.521 19.34 178.065C19.852 178.601 20.108 179.297 20.108 180.153C20.108 180.969 19.824 181.649 19.256 182.193C18.696 182.729 18.008 182.997 17.192 182.997C16.4 182.997 15.744 182.765 15.224 182.301C14.712 181.829 14.448 181.201 14.432 180.417ZM24.388 179.865H21.388V179.169H24.388V179.865ZM26.2734 176.577V176.037C27.0734 176.005 27.6054 175.921 27.8694 175.785C28.2774 175.577 28.5334 175.121 28.6374 174.417H29.2494V182.817H28.4934V176.577H26.2734ZM35.1133 174.981C33.6653 174.981 32.9413 176.209 32.9413 178.665C32.9413 181.129 33.6653 182.361 35.1133 182.361C36.5613 182.361 37.2853 181.129 37.2853 178.665C37.2853 176.209 36.5613 174.981 35.1133 174.981ZM35.1133 174.345C37.0653 174.345 38.0413 175.785 38.0413 178.665C38.0413 181.553 37.0653 182.997 35.1133 182.997C33.1613 182.997 32.1853 181.557 32.1853 178.677C32.1853 175.789 33.1613 174.345 35.1133 174.345ZM42.6252 182.817V174.249H43.8252L46.7892 181.761L49.7412 174.249H50.9412V182.817H50.1252V175.413H50.1012L47.1732 182.817H46.4052L43.4652 175.413H43.4412V182.817H42.6252ZM52.7053 182.817V174.249H53.5213V182.817H52.7053ZM55.2934 182.817V174.249H56.2054L61.1974 181.497H61.2214V174.249H62.0374V182.817H61.1254L56.1334 175.569H56.1094V182.817H55.2934Z" fill="white"/>
<path fill-rule="evenodd" clip-rule="evenodd" d="M176.508 87.7597C176.897 87.451 177 86.9203 177 86.4237V7C177 3.13401 173.866 1.50401e-06 170 1.27677e-06L148.278 0C145.948 -1.3698e-07 143.798 1.1748 142.321 2.97708C135.255 11.5958 119.908 24.1267 100.3 22.3204C78.2733 20.2913 69.4889 34.6642 67.85 42.1044C64.7361 59.0137 69.2266 90.8034 112.1 82.6869C150.094 75.4941 163.093 79.9873 165.674 84.1629C166.251 85.0971 166.425 86.2627 167.142 87.0948C168.946 89.1897 172.32 91.0835 176.508 87.7597Z" fill="#7D89FF"/>
<path fill-rule="evenodd" clip-rule="evenodd" d="M120.23 0C116.944 2.78668 115.336 6.25747 116.605 8.12721C118.006 10.1927 122.389 9.52223 126.392 6.62971C129.175 4.61934 131.043 2.06468 131.452 0H120.23Z" fill="#7D89FF"/>
</svg>
