<svg width="382" height="101" viewBox="0 0 382 101" fill="none" xmlns="http://www.w3.org/2000/svg">
<rect y="6" width="377" height="95" rx="10" fill="#F1DDCF"/>
<path fill-rule="evenodd" clip-rule="evenodd" d="M176.289 6C172.948 8.57042 168.844 14.95 168.844 25.2568C168.844 41.9459 198.58 49.0068 205.636 49.0068C207.778 49.0068 214.008 45.1023 222.084 40.0412C240.608 28.431 268.845 10.7341 279.726 20.1216C286.721 26.1568 289.877 31.6773 292.542 36.3375C295.828 42.0859 298.366 46.5252 306.438 49.0068C311.067 50.4295 314.28 54.4909 317.678 58.7863C325.012 68.0564 333.209 78.4166 358.352 65.6959C367.482 61.0765 373.421 55.0817 377 48.5049V8.89206C376.57 7.89773 376.119 6.93237 375.651 6H176.289Z" fill="#FAC978"/>
<path fill-rule="evenodd" clip-rule="evenodd" d="M56.2989 6.41446C56.1126 6.1061 55.7322 6 55.372 6L7 6C3.13401 6 -1.64452e-06 9.134 0 13L8.46642e-06 32.9031C8.46642e-06 33.1898 0.119012 33.4575 0.329886 33.6516C5.7291 38.623 15.5941 52.4643 14.3188 70.6547C13.0171 89.2222 22.2375 96.6271 27.0104 98.0086C37.858 100.634 58.2514 96.8482 53.0446 60.7078C48.0155 25.8012 51.8917 15.9231 54.7035 15.1649C54.8915 15.1142 55.0817 15.0597 55.2316 14.9353C56.7427 13.6802 58.7716 10.5085 56.2989 6.41446V6.41446Z" fill="#ECD3C2"/>
<path d="M34.1799 37.5426V47.7426H36.6399C38.4532 47.7426 39.7399 47.2493 40.4999 46.2626C41.0999 45.4626 41.3999 44.2559 41.3999 42.6426C41.3999 41.0293 41.0999 39.8226 40.4999 39.0226C39.7399 38.0359 38.4532 37.5426 36.6399 37.5426H34.1799ZM31.6799 49.7826V35.5026H37.5999C39.6932 35.5026 41.2932 36.2026 42.3999 37.6026C43.3999 38.8559 43.8999 40.5359 43.8999 42.6426C43.8999 44.7493 43.3999 46.4293 42.3999 47.6826C41.2932 49.0826 39.6932 49.7826 37.5999 49.7826H31.6799ZM50.5335 48.2626C51.4935 48.2626 52.2402 47.8759 52.7735 47.1026C53.2402 46.4359 53.4735 45.6026 53.4735 44.6026C53.4735 43.6159 53.2402 42.7893 52.7735 42.1226C52.2402 41.3493 51.4935 40.9626 50.5335 40.9626C49.5735 40.9626 48.8268 41.3493 48.2935 42.1226C47.8268 42.7893 47.5935 43.6159 47.5935 44.6026C47.5935 45.6026 47.8268 46.4359 48.2935 47.1026C48.8268 47.8759 49.5735 48.2626 50.5335 48.2626ZM50.5335 50.0626C48.9068 50.0626 47.6202 49.5493 46.6735 48.5226C45.7668 47.5359 45.3135 46.2293 45.3135 44.6026C45.3135 42.9893 45.7735 41.6826 46.6935 40.6826C47.6268 39.6693 48.9068 39.1626 50.5335 39.1626C52.1602 39.1626 53.4468 39.6759 54.3935 40.7026C55.3002 41.6893 55.7535 42.9893 55.7535 44.6026C55.7535 46.2293 55.3002 47.5359 54.3935 48.5226C53.4468 49.5493 52.1602 50.0626 50.5335 50.0626ZM57.089 46.4626H59.369C59.4756 47.6626 60.2556 48.2626 61.709 48.2626C63.2823 48.2626 64.049 47.8093 64.009 46.9026C63.9823 46.2626 63.3823 45.8026 62.209 45.5226C60.249 45.0426 59.189 44.7626 59.029 44.6826C57.8823 44.1759 57.309 43.3226 57.309 42.1226C57.309 41.0959 57.7956 40.3226 58.769 39.8026C59.5423 39.3759 60.4956 39.1626 61.629 39.1626C62.789 39.1626 63.7423 39.4026 64.489 39.8826C65.329 40.4426 65.8156 41.2626 65.949 42.3426H63.569C63.3956 41.4226 62.6956 40.9626 61.469 40.9626C60.2156 40.9626 59.589 41.3159 59.589 42.0226C59.589 42.5026 59.9423 42.8693 60.649 43.1226C60.7823 43.1759 61.549 43.3626 62.949 43.6826C63.989 43.9226 64.7556 44.2159 65.249 44.5626C65.9423 45.0693 66.289 45.7826 66.289 46.7026C66.289 47.8359 65.789 48.7026 64.789 49.3026C63.949 49.8093 62.909 50.0626 61.669 50.0626C60.309 50.0626 59.229 49.7693 58.429 49.1826C57.549 48.5426 57.1023 47.6359 57.089 46.4626ZM77.4001 45.2026H69.8001C69.8001 46.0693 70.0267 46.7826 70.4801 47.3426C70.9734 47.9559 71.6734 48.2626 72.5801 48.2626C73.8601 48.2626 74.7001 47.6893 75.1001 46.5426H77.2601C77.0201 47.6493 76.4667 48.5159 75.6001 49.1426C74.7467 49.7559 73.7401 50.0626 72.5801 50.0626C70.9934 50.0626 69.7534 49.5626 68.8601 48.5626C67.9667 47.5626 67.5201 46.2493 67.5201 44.6226C67.5201 43.1026 67.9667 41.8226 68.8601 40.7826C69.8067 39.7026 71.0267 39.1626 72.5201 39.1626C73.9734 39.1626 75.1667 39.6959 76.1001 40.7626C76.9934 41.7626 77.4401 42.9893 77.4401 44.4426C77.4401 44.6959 77.4267 44.9493 77.4001 45.2026ZM69.8001 43.7026H75.1201C75.0801 42.9426 74.8201 42.2959 74.3401 41.7626C73.8734 41.2293 73.2667 40.9626 72.5201 40.9626C71.7467 40.9626 71.1067 41.2226 70.6001 41.7426C70.0934 42.2626 69.8267 42.9159 69.8001 43.7026ZM86.4798 44.7226C86.4798 45.6959 86.7064 46.5093 87.1598 47.1626C87.6798 47.8959 88.4064 48.2626 89.3398 48.2626C90.2864 48.2626 91.0264 47.8759 91.5598 47.1026C92.0131 46.4359 92.2398 45.6026 92.2398 44.6026C92.2398 43.4693 91.9798 42.5826 91.4598 41.9426C90.9531 41.2893 90.2598 40.9626 89.3798 40.9626C88.3931 40.9626 87.6398 41.3559 87.1198 42.1426C86.6931 42.8093 86.4798 43.6693 86.4798 44.7226ZM94.4398 35.5026V49.7826H92.2798V48.3826H92.2398C91.6664 49.5026 90.5998 50.0626 89.0398 50.0626C87.4664 50.0626 86.2531 49.5293 85.3998 48.4626C84.5998 47.4759 84.1998 46.1693 84.1998 44.5426C84.1998 42.7826 84.6664 41.4159 85.5998 40.4426C86.4131 39.5893 87.4398 39.1626 88.6798 39.1626C90.3064 39.1626 91.4531 39.7026 92.1198 40.7826H92.1598V35.5026H94.4398ZM96.9863 49.7826V39.4426H99.2663V49.7826H96.9863ZM96.9863 37.6626V35.5026H99.2663V37.6626H96.9863ZM108.131 46.3026V44.6026C107.837 44.7893 107.411 44.9293 106.851 45.0226C106.344 45.0893 105.837 45.1559 105.331 45.2226C104.091 45.4359 103.471 46.0093 103.471 46.9426C103.471 47.3959 103.724 47.7426 104.231 47.9826C104.617 48.1693 105.064 48.2626 105.571 48.2626C106.184 48.2626 106.737 48.1159 107.231 47.8226C107.831 47.4626 108.131 46.9559 108.131 46.3026ZM110.411 42.1626V47.4826C110.411 48.0026 110.591 48.2626 110.951 48.2626C111.164 48.2626 111.351 48.2493 111.511 48.2226V49.8026C111.017 49.9759 110.537 50.0626 110.071 50.0626C109.057 50.0626 108.471 49.6426 108.311 48.8026C107.457 49.6426 106.264 50.0626 104.731 50.0626C103.731 50.0626 102.911 49.8093 102.271 49.3026C101.551 48.7559 101.191 48.0026 101.191 47.0426C101.191 45.8959 101.617 45.0693 102.471 44.5626C102.991 44.2559 103.891 44.0093 105.171 43.8226C106.611 43.6093 107.331 43.5026 107.331 43.5026C107.957 43.3159 108.271 42.9359 108.271 42.3626C108.271 41.4293 107.557 40.9626 106.131 40.9626C104.704 40.9626 103.944 41.5093 103.851 42.6026H101.571C101.704 40.3093 103.271 39.1626 106.271 39.1626C107.404 39.1626 108.344 39.3893 109.091 39.8426C109.971 40.3759 110.411 41.1493 110.411 42.1626ZM104.611 38.0226L106.411 35.1626H109.111L106.271 38.0226H104.611ZM112.864 49.7826V39.4426H115.004V41.4426H115.044C115.177 40.8693 115.544 40.3493 116.144 39.8826C116.744 39.4026 117.384 39.1626 118.064 39.1626C118.237 39.1626 118.524 39.1826 118.924 39.2226V41.4226C118.39 41.3559 118.064 41.3226 117.944 41.3226C117.13 41.3226 116.47 41.6293 115.964 42.2426C115.417 42.8826 115.144 43.7559 115.144 44.8626V49.7826H112.864ZM119.955 49.7826V39.4426H122.235V49.7826H119.955ZM119.955 37.6626V35.5026H122.235V37.6626H119.955ZM131.099 46.3026V44.6026C130.806 44.7893 130.379 44.9293 129.819 45.0226C129.313 45.0893 128.806 45.1559 128.299 45.2226C127.059 45.4359 126.439 46.0093 126.439 46.9426C126.439 47.3959 126.693 47.7426 127.199 47.9826C127.586 48.1693 128.033 48.2626 128.539 48.2626C129.153 48.2626 129.706 48.1159 130.199 47.8226C130.799 47.4626 131.099 46.9559 131.099 46.3026ZM133.379 42.1626V47.4826C133.379 48.0026 133.559 48.2626 133.919 48.2626C134.133 48.2626 134.319 48.2493 134.479 48.2226V49.8026C133.986 49.9759 133.506 50.0626 133.039 50.0626C132.026 50.0626 131.439 49.6426 131.279 48.8026C130.426 49.6426 129.233 50.0626 127.699 50.0626C126.699 50.0626 125.879 49.8093 125.239 49.3026C124.519 48.7559 124.159 48.0026 124.159 47.0426C124.159 45.8959 124.586 45.0693 125.439 44.5626C125.959 44.2559 126.859 44.0093 128.139 43.8226C129.579 43.6093 130.299 43.5026 130.299 43.5026C130.926 43.3159 131.239 42.9359 131.239 42.3626C131.239 41.4293 130.526 40.9626 129.099 40.9626C127.673 40.9626 126.913 41.5093 126.819 42.6026H124.539C124.673 40.3093 126.239 39.1626 129.239 39.1626C130.373 39.1626 131.313 39.3893 132.059 39.8426C132.939 40.3759 133.379 41.1493 133.379 42.1626Z" fill="#474853"/>
<path d="M32.0408 74V66.146H32.7888V73.362H37.1888V74H32.0408ZM37.949 74V66.146H43.372V66.784H38.697V69.622H43.075V70.26H38.697V73.362H43.427V74H37.949ZM44.5245 74V66.146H45.2725V74H44.5245ZM46.061 66.784V66.146H52.287V66.784H49.548V74H48.8V66.784H46.061ZM52.9433 71.173V66.146H53.6913V71.008C53.6913 72.6873 54.4576 73.527 55.9903 73.527C57.5303 73.527 58.3003 72.6873 58.3003 71.008V66.146H59.0483V71.173C59.0483 72.053 58.8136 72.7533 58.3443 73.274C57.8089 73.868 57.0243 74.165 55.9903 74.165C54.9636 74.165 54.1826 73.868 53.6473 73.274C53.1779 72.746 52.9433 72.0457 52.9433 71.173ZM60.5505 74V66.146H64.1475C64.8442 66.146 65.4052 66.311 65.8305 66.641C66.2999 67.0003 66.5345 67.5173 66.5345 68.192C66.5345 68.7053 66.4062 69.138 66.1495 69.49C65.8782 69.864 65.4969 70.0987 65.0055 70.194V70.216C65.8562 70.326 66.3145 70.9163 66.3805 71.987C66.4172 72.6177 66.4392 72.9697 66.4465 73.043C66.5052 73.5123 66.6042 73.8313 66.7435 74H65.9185C65.8159 73.8387 65.7462 73.4317 65.7095 72.779C65.6655 72.0383 65.5739 71.525 65.4345 71.239C65.1999 70.755 64.7672 70.513 64.1365 70.513H61.2985V74H60.5505ZM61.2985 66.784V69.875H64.0925C64.5692 69.875 64.9689 69.7357 65.2915 69.457C65.6215 69.1783 65.7865 68.808 65.7865 68.346C65.7865 67.8547 65.6399 67.4733 65.3465 67.202C65.0605 66.9233 64.6425 66.784 64.0925 66.784H61.2985ZM67.0185 74L70.1865 66.146H71.0225L74.1025 74H73.2995L72.3425 71.558H68.7675L67.8215 74H67.0185ZM70.5715 66.894L68.9985 70.92H72.0895L70.5715 66.894ZM80.9392 70.073C80.9392 69.5303 81.1299 69.0683 81.5112 68.687C81.8926 68.3057 82.3546 68.115 82.8972 68.115C83.4399 68.115 83.9019 68.3057 84.2832 68.687C84.6719 69.0683 84.8662 69.5303 84.8662 70.073C84.8662 70.6157 84.6719 71.0813 84.2832 71.47C83.9019 71.8513 83.4399 72.042 82.8972 72.042C82.3546 72.042 81.8926 71.8513 81.5112 71.47C81.1299 71.0813 80.9392 70.6157 80.9392 70.073ZM92.1187 71.294H89.3687V70.656H92.1187V71.294ZM93.847 68.28V67.785C94.5804 67.7557 95.068 67.6787 95.31 67.554C95.684 67.3633 95.9187 66.9453 96.014 66.3H96.575V74H95.882V68.28H93.847ZM99.6623 74V66.146H100.762L103.479 73.032L106.185 66.146H107.285V74H106.537V67.213H106.515L103.831 74H103.127L100.432 67.213H100.41V74H99.6623ZM108.902 74V66.146H109.65V74H108.902ZM111.275 74V66.146H112.111L116.687 72.79H116.709V66.146H117.457V74H116.621L112.045 67.356H112.023V74H111.275Z" fill="#474853"/>
<path d="M174.388 75.2787V100.954H264.606C261.582 91.754 254.425 71.8125 249.989 65.6503C244.445 57.9476 236.381 62.4409 228.821 62.4409C221.261 62.4409 209.164 72.7112 198.076 70.1436C186.988 67.576 189.004 61.799 182.452 58.5895C177.21 56.022 174.892 68.6459 174.388 75.2787Z" fill="#FF7C6B"/>
<ellipse cx="326.599" cy="54" rx="20.1604" ry="20" fill="#F38014"/>
<path d="M322.211 49.7728C322.211 48.9902 323.046 48.4951 323.705 48.8864L332.056 53.8382C332.709 54.2256 332.701 55.1933 332.041 55.5846L323.691 60.5364C323.031 60.9277 322.211 60.4512 322.211 59.6764L322.211 49.7728Z" fill="white"/>
<path d="M374.078 6.40978C375.17 6.89927 376.217 7.40095 377.087 8.24093C377.734 8.86601 378.31 9.55923 378.93 10.2105C378.988 10.2711 379.827 11.1145 379.839 11.0927C379.977 10.8458 379.527 10.4147 379.383 10.2698C378.66 9.53827 377.937 8.80979 377.206 8.08524C376.31 7.19586 375.51 6.21761 374.626 5.31752C373.8 4.47742 372.871 3.68485 371.895 3.01933C371.304 2.61564 370.583 2.16752 369.843 2.09758C369.567 2.07152 369.847 2.35629 369.928 2.47073C370.333 3.04761 370.898 3.55728 371.392 4.05969C371.99 4.66733 372.566 5.30087 373.151 5.92049C373.513 6.30359 373.902 6.63569 374.274 7.00534C374.425 7.15452 374.588 7.30847 374.76 7.43285C375.025 7.62431 374.191 7.10639 373.923 6.91885C373.202 6.41439 372.572 5.83593 371.801 5.3966C371.46 5.20214 371.036 5.05453 370.66 4.9419C370.021 4.75061 369.383 4.51525 368.732 4.36365C368.303 4.26389 367.043 3.91129 367.437 4.10665C367.792 4.28283 368.218 4.38268 368.59 4.5218C369.122 4.72058 369.663 4.91467 370.212 5.06546C370.698 5.1993 371.218 5.296 371.691 5.47568C372.317 5.71356 372.923 5.86053 373.495 6.23186C373.81 6.43644 374.148 6.59823 374.459 6.81259C374.844 7.07828 375.179 7.40673 375.557 7.6775C376.117 8.0788 376.588 8.61222 377.037 9.12067C377.51 9.65663 377.831 10.2102 378.158 10.8357C378.356 11.2158 378.454 11.6321 378.584 12.0367C378.66 12.2756 378.7 12.4858 378.751 12.7261C378.774 12.8363 378.843 13.1243 378.631 12.9139C378.407 12.6915 378.3 12.2915 378.178 12.0095C377.992 11.581 377.808 11.1476 377.675 10.6997C377.537 10.2406 377.398 9.85509 377.127 9.45427C376.836 9.02571 376.415 8.72855 376.05 8.36696C375.676 7.99532 375.336 7.52838 374.919 7.21044C374.555 6.93268 374.244 6.58745 373.878 6.31094C372.625 5.36384 371.491 4.24272 370.401 3.11817" stroke="white" stroke-width="3" stroke-linecap="round"/>
</svg>
