<svg width="177" height="209" viewBox="0 0 177 209" fill="none" xmlns="http://www.w3.org/2000/svg">
<rect y="0.152069" width="176.35" height="208.848" rx="6" fill="#FFCA7E" fill-opacity="0.9"/>
<path d="M17.7676 89.8624V94.0994H21.6626C23.2079 94.0994 23.9806 93.3774 23.9806 91.9334C23.9806 90.5528 23.1953 89.8624 21.6246 89.8624H17.7676ZM15.3926 101.49V87.9244H21.8716C23.3409 87.9244 24.4556 88.2474 25.2156 88.8934C25.9756 89.5268 26.3556 90.4261 26.3556 91.5914C26.3556 93.3521 25.6083 94.4921 24.1136 95.0114V95.0494C25.4563 95.2394 26.1276 96.1958 26.1276 97.9184C26.1276 99.7678 26.3746 100.958 26.8686 101.49H24.3226C24.0819 101.098 23.9616 100.433 23.9616 99.4954C23.9616 98.1908 23.7843 97.2788 23.4296 96.7594C23.0369 96.1894 22.3149 95.9044 21.2636 95.9044H17.7676V101.49H15.3926ZM37.3775 97.1394H30.1575C30.1575 97.9628 30.3729 98.6404 30.8035 99.1724C31.2722 99.7551 31.9372 100.046 32.7985 100.046C34.0145 100.046 34.8125 99.5018 35.1925 98.4124H37.2445C37.0165 99.4638 36.4909 100.287 35.6675 100.882C34.8569 101.465 33.9005 101.756 32.7985 101.756C31.2912 101.756 30.1132 101.281 29.2645 100.331C28.4159 99.3814 27.9915 98.1338 27.9915 96.5884C27.9915 95.1444 28.4159 93.9284 29.2645 92.9404C30.1639 91.9144 31.3229 91.4014 32.7415 91.4014C34.1222 91.4014 35.2559 91.9081 36.1425 92.9214C36.9912 93.8714 37.4155 95.0368 37.4155 96.4174C37.4155 96.6581 37.4029 96.8988 37.3775 97.1394ZM30.1575 95.7144H35.2115C35.1735 94.9924 34.9265 94.3781 34.4705 93.8714C34.0272 93.3648 33.4509 93.1114 32.7415 93.1114C32.0069 93.1114 31.3989 93.3584 30.9175 93.8524C30.4362 94.3464 30.1829 94.9671 30.1575 95.7144ZM39.0812 101.49V87.9244H41.2472V101.49H39.0812ZM49.6682 98.1844V96.5694C49.3895 96.7468 48.9842 96.8798 48.4522 96.9684C47.9708 97.0318 47.4895 97.0951 47.0082 97.1584C45.8302 97.3611 45.2412 97.9058 45.2412 98.7924C45.2412 99.2231 45.4818 99.5524 45.9632 99.7804C46.3305 99.9578 46.7548 100.046 47.2362 100.046C47.8188 100.046 48.3445 99.9071 48.8132 99.6284C49.3832 99.2864 49.6682 98.8051 49.6682 98.1844ZM51.8342 94.2514V99.3054C51.8342 99.7994 52.0052 100.046 52.3472 100.046C52.5498 100.046 52.7272 100.034 52.8792 100.008V101.509C52.4105 101.674 51.9545 101.756 51.5112 101.756C50.5485 101.756 49.9912 101.357 49.8392 100.559C49.0285 101.357 47.8948 101.756 46.4382 101.756C45.4882 101.756 44.7092 101.516 44.1012 101.034C43.4172 100.515 43.0752 99.7994 43.0752 98.8874C43.0752 97.7981 43.4805 97.0128 44.2912 96.5314C44.7852 96.2401 45.6402 96.0058 46.8562 95.8284C48.2242 95.6258 48.9082 95.5244 48.9082 95.5244C49.5035 95.3471 49.8012 94.9861 49.8012 94.4414C49.8012 93.5548 49.1235 93.1114 47.7682 93.1114C46.4128 93.1114 45.6908 93.6308 45.6022 94.6694H43.4362C43.5628 92.4908 45.0512 91.4014 47.9012 91.4014C48.9778 91.4014 49.8708 91.6168 50.5802 92.0474C51.4162 92.5541 51.8342 93.2888 51.8342 94.2514ZM53.1008 101.49L56.8058 96.3224L53.4048 91.6674H56.0268L58.0788 94.6884L60.2258 91.6674H62.7338L59.3898 96.2084L63.1518 101.49H60.5488L58.0598 97.8614L55.6468 101.49H53.1008ZM70.4309 98.1844V96.5694C70.1522 96.7468 69.7469 96.8798 69.2149 96.9684C68.7335 97.0318 68.2522 97.0951 67.7709 97.1584C66.5929 97.3611 66.0039 97.9058 66.0039 98.7924C66.0039 99.2231 66.2445 99.5524 66.7259 99.7804C67.0932 99.9578 67.5175 100.046 67.9989 100.046C68.5815 100.046 69.1072 99.9071 69.5759 99.6284C70.1459 99.2864 70.4309 98.8051 70.4309 98.1844ZM72.5969 94.2514V99.3054C72.5969 99.7994 72.7679 100.046 73.1099 100.046C73.3125 100.046 73.4899 100.034 73.6419 100.008V101.509C73.1732 101.674 72.7172 101.756 72.2739 101.756C71.3112 101.756 70.7539 101.357 70.6019 100.559C69.7912 101.357 68.6575 101.756 67.2009 101.756C66.2509 101.756 65.4719 101.516 64.8639 101.034C64.1799 100.515 63.8379 99.7994 63.8379 98.8874C63.8379 97.7981 64.2432 97.0128 65.0539 96.5314C65.5479 96.2401 66.4029 96.0058 67.6189 95.8284C68.9869 95.6258 69.6709 95.5244 69.6709 95.5244C70.2662 95.3471 70.5639 94.9861 70.5639 94.4414C70.5639 93.5548 69.8862 93.1114 68.5309 93.1114C67.1755 93.1114 66.4535 93.6308 66.3649 94.6694H64.1989C64.3255 92.4908 65.8139 91.4014 68.6639 91.4014C69.7405 91.4014 70.6335 91.6168 71.3429 92.0474C72.1789 92.5541 72.5969 93.2888 72.5969 94.2514ZM74.9275 101.49V91.6674H76.9605V93.5674H76.9985C77.1251 93.0228 77.4735 92.5288 78.0435 92.0854C78.6135 91.6294 79.2215 91.4014 79.8675 91.4014C80.0321 91.4014 80.3045 91.4204 80.6845 91.4584V93.5484C80.1778 93.4851 79.8675 93.4534 79.7535 93.4534C78.9808 93.4534 78.3538 93.7448 77.8725 94.3274C77.3531 94.9354 77.0935 95.7651 77.0935 96.8164V101.49H74.9275Z" fill="white"/>
<path d="M14.7186 122.605V114.751H15.8186L18.5356 121.637L21.2416 114.751H22.3416V122.605H21.5936V115.818H21.5716L18.8876 122.605H18.1836L15.4886 115.818H15.4666V122.605H14.7186ZM23.8267 119.778V114.751H24.5747V119.613C24.5747 121.292 25.341 122.132 26.8737 122.132C28.4137 122.132 29.1837 121.292 29.1837 119.613V114.751H29.9317V119.778C29.9317 120.658 29.697 121.358 29.2277 121.879C28.6924 122.473 27.9077 122.77 26.8737 122.77C25.847 122.77 25.066 122.473 24.5307 121.879C24.0614 121.351 23.8267 120.65 23.8267 119.778ZM28.2377 112.573L26.7857 114.124H26.2247L27.3797 112.573H28.2377ZM31.038 120.02H31.786C31.7566 121.428 32.611 122.132 34.349 122.132C34.8476 122.132 35.2986 122.007 35.702 121.758C36.186 121.464 36.428 121.057 36.428 120.537C36.428 119.855 35.889 119.382 34.811 119.118L33.062 118.689C31.8813 118.403 31.291 117.772 31.291 116.797C31.291 116.269 31.467 115.803 31.819 115.4C32.2956 114.857 33.0216 114.586 33.997 114.586C34.8183 114.586 35.4966 114.791 36.032 115.202C36.6186 115.649 36.9083 116.258 36.901 117.028H36.153C36.131 116.456 35.9073 116.005 35.482 115.675C35.086 115.374 34.5946 115.224 34.008 115.224C33.436 115.224 32.9813 115.337 32.644 115.565C32.2406 115.836 32.039 116.243 32.039 116.786C32.039 117.387 32.435 117.787 33.227 117.985L35.141 118.458C36.4976 118.795 37.176 119.484 37.176 120.526C37.176 121.032 37.022 121.472 36.714 121.846C36.2153 122.462 35.3683 122.77 34.173 122.77C33.1903 122.77 32.424 122.55 31.874 122.11C31.2726 121.633 30.994 120.936 31.038 120.02ZM38.4177 122.605V114.751H39.1657V122.605H38.4177ZM47.2912 117.127H46.5432C46.4112 116.533 46.1215 116.067 45.6742 115.73C45.2342 115.392 44.7208 115.224 44.1342 115.224C43.1588 115.224 42.4072 115.583 41.8792 116.302C41.4098 116.94 41.1752 117.732 41.1752 118.678C41.1752 119.624 41.4098 120.412 41.8792 121.043C42.4072 121.769 43.1588 122.132 44.1342 122.132C44.8382 122.132 45.4212 121.886 45.8832 121.395C46.3232 120.933 46.5798 120.339 46.6532 119.613H47.4012C47.2985 120.581 46.9538 121.351 46.3672 121.923C45.7878 122.487 45.0435 122.77 44.1342 122.77C42.9535 122.77 42.0258 122.355 41.3512 121.527C40.7352 120.771 40.4272 119.822 40.4272 118.678C40.4272 117.534 40.7352 116.584 41.3512 115.829C42.0258 115 42.9535 114.586 44.1342 114.586C44.9188 114.586 45.6045 114.802 46.1912 115.235C46.8292 115.711 47.1958 116.342 47.2912 117.127ZM47.6773 122.605L50.8453 114.751H51.6813L54.7613 122.605H53.9583L53.0013 120.163H49.4263L48.4803 122.605H47.6773ZM51.2303 115.499L49.6573 119.525H52.7483L51.2303 115.499ZM55.079 120.02H55.827C55.7977 121.428 56.652 122.132 58.39 122.132C58.8887 122.132 59.3397 122.007 59.743 121.758C60.227 121.464 60.469 121.057 60.469 120.537C60.469 119.855 59.93 119.382 58.852 119.118L57.103 118.689C55.9223 118.403 55.332 117.772 55.332 116.797C55.332 116.269 55.508 115.803 55.86 115.4C56.3367 114.857 57.0627 114.586 58.038 114.586C58.8593 114.586 59.5377 114.791 60.073 115.202C60.6597 115.649 60.9493 116.258 60.942 117.028H60.194C60.172 116.456 59.9483 116.005 59.523 115.675C59.127 115.374 58.6357 115.224 58.049 115.224C57.477 115.224 57.0223 115.337 56.685 115.565C56.2817 115.836 56.08 116.243 56.08 116.786C56.08 117.387 56.476 117.787 57.268 117.985L59.182 118.458C60.5387 118.795 61.217 119.484 61.217 120.526C61.217 121.032 61.063 121.472 60.755 121.846C60.2563 122.462 59.4093 122.77 58.214 122.77C57.2313 122.77 56.465 122.55 55.915 122.11C55.3137 121.633 55.035 120.936 55.079 120.02Z" fill="white"/>
<path d="M14.3446 180.169H15.1006C15.0766 180.841 15.2526 181.381 15.6286 181.789C16.0046 182.189 16.5286 182.389 17.2006 182.389C17.7846 182.389 18.2806 182.229 18.6886 181.909C19.1286 181.565 19.3486 181.105 19.3486 180.529C19.3486 179.961 19.1526 179.517 18.7606 179.197C18.3926 178.901 17.9166 178.753 17.3326 178.753H16.6966V178.117H17.3326C17.7726 178.117 18.1526 177.993 18.4726 177.745C18.8486 177.465 19.0366 177.081 19.0366 176.593C19.0366 176.065 18.8566 175.661 18.4966 175.381C18.1686 175.133 17.7366 175.009 17.2006 175.009C16.5846 175.009 16.1086 175.205 15.7726 175.597C15.4366 175.981 15.2766 176.493 15.2926 177.133H14.5366C14.5446 176.325 14.7886 175.665 15.2686 175.153C15.7486 174.633 16.3886 174.373 17.1886 174.373C17.9086 174.373 18.5086 174.541 18.9886 174.877C19.5246 175.269 19.7926 175.813 19.7926 176.509C19.7926 176.973 19.6646 177.373 19.4086 177.709C19.1606 178.045 18.8166 178.265 18.3766 178.369V178.393C18.9206 178.481 19.3446 178.713 19.6486 179.089C19.9526 179.457 20.1046 179.917 20.1046 180.469C20.1046 181.261 19.8166 181.893 19.2406 182.365C18.7046 182.805 18.0286 183.025 17.2126 183.025C16.3166 183.025 15.6006 182.769 15.0646 182.257C14.5286 181.745 14.2886 181.049 14.3446 180.169ZM24.3366 179.893H21.3366V179.197H24.3366V179.893ZM26.222 176.605V176.065C27.022 176.033 27.554 175.949 27.818 175.813C28.226 175.605 28.482 175.149 28.586 174.445H29.198V182.845H28.442V176.605H26.222ZM35.062 175.009C33.614 175.009 32.89 176.237 32.89 178.693C32.89 181.157 33.614 182.389 35.062 182.389C36.51 182.389 37.234 181.157 37.234 178.693C37.234 176.237 36.51 175.009 35.062 175.009ZM35.062 174.373C37.014 174.373 37.99 175.813 37.99 178.693C37.99 181.581 37.014 183.025 35.062 183.025C33.11 183.025 32.134 181.585 32.134 178.705C32.134 175.817 33.11 174.373 35.062 174.373ZM42.5738 182.845V174.277H43.7738L46.7378 181.789L49.6898 174.277H50.8898V182.845H50.0738V175.441H50.0498L47.1218 182.845H46.3538L43.4138 175.441H43.3898V182.845H42.5738ZM52.6539 182.845V174.277H53.4699V182.845H52.6539ZM55.242 182.845V174.277H56.154L61.146 181.525H61.17V174.277H61.986V182.845H61.074L56.082 175.597H56.058V182.845H55.242Z" fill="white"/>
<path fill-rule="evenodd" clip-rule="evenodd" d="M175.86 87.8479C176.248 87.5392 176.35 87.0095 176.35 86.5138V7.15207C176.35 3.28608 173.216 0.152072 169.35 0.152072L147.753 0.152069C145.42 0.152069 143.267 1.33028 141.79 3.13692C134.747 11.7491 119.46 24.2605 99.9316 22.4562C77.9859 20.4286 69.2337 34.7911 67.6008 42.2258C64.4984 59.1229 68.9724 90.8894 111.688 82.7788C149.549 75.5901 162.498 80.0827 165.066 84.2558C165.641 85.1889 165.813 86.3512 166.527 87.1824C168.325 89.2762 171.687 91.1698 175.86 87.8479V87.8479Z" fill="#EEB76A"/>
<path fill-rule="evenodd" clip-rule="evenodd" d="M119.789 0.152069C116.515 2.93673 114.912 6.40498 116.177 8.27337C117.573 10.3373 121.939 9.66737 125.928 6.77696C128.701 4.76805 130.561 2.21525 130.97 0.152069H119.789Z" fill="#EEB76A"/>
</svg>
